
<svg viewBox="0 0 600 210"> 
<g>
	<path class="oc-icon-logo" d="M95.5,72.5c11.1,0,13.7,2.5,9.8,22.8c-3.9,20.4-7.3,22.9-18.5,22.9c-11.4,0-13.8-2.5-9.9-22.9
		C80.8,75,84.1,72.5,95.5,72.5 M85,127.9c23.7,0,29.3-10.1,33.5-32.7c4.2-22.4,2.4-32.3-21.3-32.3c-23.7,0-29.3,9.9-33.6,32.3
		C59.5,117.8,61.4,127.9,85,127.9"/>
	<path class="oc-icon-logo" d="M209,109.8c-1.4,7.2-2.9,8.2-10.5,8.2c-7.7,0-9.1-1-7.7-8.2l5.2-27.6c0.1-0.6-0.4-1.2-1.4-1.2h-9.5
		c-1,0-1.7,0.5-1.8,1.2l-5.4,28.6c-1.9,10.2,0.3,16.3,19,16.3c18.6,0,23-6.1,24.9-16.3l5.4-28.6c0.1-0.6-0.2-1.2-1.4-1.2H216
		c-1.3,0-1.7,0.5-1.8,1.2L209,109.8z"/>
	<path class="oc-icon-logo" d="M255,89c6.3,0,8.8,0.7,10.8,0.7c1.4,0,2-0.5,2.1-1.6l0.8-4.1c0.5-2.7-1.1-3.6-13.7-3.6
		c-14.3,0-20,2.8-21.8,12.5c-1.6,8.5,3.1,10.4,8.4,12.6l5.9,2.4c4.4,1.8,5.9,2.3,5.3,5.5c-0.7,3.5-2.7,4.7-9.8,4.7
		c-7.3,0-11.1-1-12.6-1c-0.8,0-1.5,0.4-1.6,1.1l-0.9,4.9c-0.4,1.9-0.2,2.5,1.2,3c1.8,0.7,6.9,1.1,12.8,1.1c16,0,21.9-4.9,23.7-14.4
		c1.4-7.7-1.6-9.6-6.8-11.8l-6.5-2.6c-5.1-2.1-7.1-2.5-6.5-5.4C246.4,89.7,248.5,89,255,89"/>
	<path class="oc-icon-logo" d="M152.1,80.6c-10.2,0-15.5,1.8-19.2,4.7c-3.7,2.9-5.5,7.8-7.4,17.6l-8.1,42.8c-0.1,0.6,0.2,1.2,1.4,1.2h9.5
		c1.3,0,1.7-0.5,1.8-1.2l3.6-19.2c0.1-0.4,0.3-0.5,0.8-0.5c1.4,0,2.9,1.3,10.7,1.3c13.1,0,22-5.4,25.5-23.8
		C174,86.2,171,80.6,152.1,80.6 M157.5,103.5c-2.2,11.4-5.3,14.6-12.3,14.6c-3.5,0-6.4-0.4-7.6-1.6c-1.3-1.4-1.1-4.6,0.3-11.9
		c1.2-6.3,2.2-10.9,4.1-12.5c1.8-1.6,4.7-2.2,8.5-2.2C157.5,89.8,159.6,92.1,157.5,103.5"/>
	<path class="oc-icon-logo" d="M302.6,118.7c-12.9,0-16.9-3-13.1-23.4c3.8-20.3,9.3-23.1,22.2-23.1c4.3,0,12.7,0.9,12.7,0.9
		c0.8,0,1.5-0.5,1.6-1l1.1-6c0.2-1.1-0.2-1.8-1.6-2.1c-2.4-0.5-6.4-1-13.4-1c-25.3,0-31.6,9.1-36,32.3c-4.2,22.5-1.5,32.7,23.8,32.7
		c7.5,0,11.3-0.4,13.7-1.1c1.8-0.5,2.4-1.5,2.7-3l0.9-4.9c0.1-0.6-0.4-1.1-1.2-1.1C313.9,117.8,310.5,118.7,302.6,118.7"/>
	<path class="oc-icon-logo" d="M353.7,105.8c0.7,0,1.1,0.3,1,0.9l-0.7,3.5c-1,5.5-5.3,8.9-13.3,8.9c-3.6,0-5.5-1.2-4.4-6.7
		c1.2-6.1,3.3-6.6,10.4-6.6H353.7z M346.7,89.1c8.3,0,11,1.4,9.8,7.9c-0.2,0.8-0.6,1.2-1.8,1.2h-9.3c-15.3,0-19.6,4.4-21.4,14.1
		c-2,10.4,0.7,14.9,14.5,14.9c4.5,0,10.4-0.5,15.2-4.7c0.2-0.2,0.4-0.3,0.5-0.3c0.1,0,0.1,0.1,0.3,0.3l1.1,2c1,1.8,1.4,2.2,3.5,2.2
		h2.9c1,0,1.7-0.5,1.8-1.2l4.7-24.8c2.8-14.6,0.3-20.2-19.2-20.2c-7.9,0-12.3,0.9-14.3,1.6c-2.2,0.7-2.7,1.6-3,3.1l-0.7,3.6
		c-0.3,1.5,0,1.8,1.2,1.8C334.2,90.8,339.8,89.1,346.7,89.1"/>
	<path class="oc-icon-logo" d="M439.2,74.1h9.5c1,0,1.7-0.5,1.8-1.2l1.7-8.9c0.1-0.6-0.4-1.2-1.4-1.2h-9.5c-1,0-1.7,0.5-1.8,1.2l-1.7,8.9
		C437.7,73.5,438.2,74.1,439.2,74.1 M429.3,126.7h9.5c1,0,1.7-0.5,1.8-1.2l8.2-43.2c0.1-0.6-0.4-1.2-1.4-1.2h-9.5
		c-1,0-1.7,0.5-1.8,1.2l-8.2,43.2C427.8,126.2,428.3,126.7,429.3,126.7"/>
	<path class="oc-icon-logo" d="M517.8,105.8c0.7,0,1.1,0.3,1,0.9l-0.7,3.5c-1,5.5-5.3,8.9-13.3,8.9c-3.6,0-5.5-1.2-4.4-6.7
		c1.2-6.1,3.3-6.6,10.4-6.6H517.8z M510.7,89.1c8.3,0,11,1.4,9.8,7.9c-0.2,0.8-0.6,1.2-1.8,1.2h-9.3c-15.3,0-19.6,4.4-21.5,14.1
		c-2,10.4,0.7,14.9,14.5,14.9c4.5,0,10.4-0.5,15.2-4.7c0.1-0.2,0.4-0.3,0.5-0.3s0.1,0.1,0.3,0.3l1.1,2c1,1.8,1.4,2.2,3.5,2.2h2.9
		c1,0,1.7-0.5,1.9-1.2l4.7-24.8c2.8-14.6,0.3-20.2-19.2-20.2c-7.9,0-12.3,0.9-14.3,1.6c-2.2,0.7-2.7,1.6-3,3.1l-0.7,3.6
		c-0.3,1.5,0,1.8,1.2,1.8C498.2,90.8,503.9,89.1,510.7,89.1"/>
	<path class="oc-icon-logo" d="M404.2,80.6c-10.2,0-15.5,1.8-19.2,4.7c-3.7,2.9-5.5,7.8-7.4,17.6l-8.1,42.8c-0.1,0.6,0.2,1.2,1.4,1.2h9.5
		c1.3,0,1.7-0.5,1.8-1.2l3.6-19.2c0.1-0.4,0.3-0.5,0.8-0.5c1.4,0,2.9,1.3,10.7,1.3c13.1,0,22-5.4,25.5-23.8
		C426.1,86.2,423.1,80.6,404.2,80.6 M409.6,103.5c-2.2,11.4-5.3,14.6-12.3,14.6c-3.5,0-6.4-0.4-7.6-1.6c-1.3-1.4-1.1-4.6,0.3-11.9
		c1.2-6.3,2.2-10.9,4.1-12.5c1.8-1.6,4.7-2.2,8.5-2.2C409.6,89.8,411.7,92.1,409.6,103.5"/>
	<path class="oc-icon-logo" d="M472.8,118.1c-6.1,0-7-2.1-6.4-5.3l4-21.3c0.1-0.5,0.6-0.8,1.3-0.8H484c0.7,0,1.2-0.3,1.3-0.8l1.4-7.2
		c0.1-0.5-0.3-0.8-1-0.8h-11.6c-1.5,0-2.1-0.4-2-1.5l0.3-7.1c0-1.4-0.4-1.9-2.2-1.9h-7.1c-1,0-1.7,0.5-1.8,1.2l-7.8,41.3
		c-1.7,8.9,0.9,13.5,15.8,13.5c9.6,0,10.9-1.4,11.3-3.1l1-5.3c0.2-0.8-0.5-1.3-1.3-1.3C478.7,117.6,476.3,118.1,472.8,118.1"/>
	<path class="oc-icon-logo" d="M517.8,105.8c0.7,0,1.1,0.3,1,0.9l-0.7,3.5c-1,5.5-5.3,8.9-13.3,8.9c-3.6,0-5.5-1.2-4.4-6.7
		c1.2-6.1,3.3-6.6,10.4-6.6H517.8z M510.7,89.1c8.3,0,11,1.4,9.8,7.9c-0.2,0.8-0.6,1.2-1.8,1.2h-9.3c-15.3,0-19.6,4.4-21.5,14.1
		c-2,10.4,0.7,14.9,14.5,14.9c4.5,0,10.4-0.5,15.2-4.7c0.1-0.2,0.4-0.3,0.5-0.3s0.1,0.1,0.3,0.3l1.1,2c1,1.8,1.4,2.2,3.5,2.2h2.9
		c1,0,1.7-0.5,1.9-1.2l4.7-24.8c2.8-14.6,0.3-20.2-19.2-20.2c-7.9,0-12.3,0.9-14.3,1.6c-2.2,0.7-2.7,1.6-3,3.1l-0.7,3.6
		c-0.3,1.5,0,1.8,1.2,1.8C498.2,90.8,503.9,89.1,510.7,89.1"/>
</g>
</svg>
