<svg viewBox="0 0 150 30" style="enable-background:new 0 0 150 30;">
<g>
	<g>
		<path class="oc-icon-logo" d="M75.2,22.5c0.7,0,1.3,0,2,0c0.6,0,1.2-0.2,1.8-0.3c0.4-0.1,0.7-0.4,0.7-0.8c0.1-0.5,0.2-1,0.3-1.4
			c0.1-0.3-0.1-0.4-0.3-0.4c-0.4,0-0.8,0.1-1.2,0.1c-1.6,0.2-3.1,0.3-4.7,0c-1.1-0.2-2-0.7-2.3-1.8c-0.1-0.4-0.2-0.8-0.2-1.2
			c-0.1-1.8,0.3-3.5,0.7-5.3c0.3-1.2,0.6-2.4,1.3-3.5c0.6-1,1.5-1.7,2.6-1.9C77.2,5.8,78.6,5.9,80,6c0.7,0,1.4,0.1,2.1,0.2
			c0.3,0,0.5-0.1,0.5-0.4c0.1-0.5,0.2-0.9,0.3-1.4c0.1-0.6,0-0.8-0.6-0.9c-2.4-0.4-4.9-0.4-7.3,0c-2.7,0.4-4.7,1.8-5.8,4.3
			c-1.3,3.3-2,6.7-1.9,10.2c0.1,2.1,1.2,3.5,3.2,4.1C72,22.5,73.6,22.6,75.2,22.5z"/>
	</g>
	<g>
		<path class="oc-icon-logo" d="M40.5,8.7c-0.5,0-0.6,0.1-0.7,0.6c-0.4,2.2-0.9,4.4-1.3,6.7c-0.2,1.1-0.5,2.3-0.5,3.4c0.1,1,0.5,1.8,1.3,2.2
			c0.3,0.2,0.7,0.3,1.1,0.4c2.4,0.5,4.9,0.5,7.3-0.1c1.6-0.4,2.7-1.4,3.2-3c0.1-0.4,0.2-0.8,0.3-1.2c0.6-2.9,1.1-5.7,1.6-8.6
			c0.1-0.4,0-0.5-0.4-0.5c-0.9,0-1.8,0-2.7,0c-0.4,0-0.6,0.1-0.6,0.5c-0.4,2.2-0.8,4.4-1.2,6.6c-0.2,0.9-0.4,1.8-0.6,2.6
			c-0.1,0.6-0.5,1-1.1,1.1c-1.1,0.3-2.3,0.3-3.5,0c-0.5-0.1-0.7-0.4-0.8-1c0-0.2,0-0.4,0-0.6c0.1-0.8,0.3-1.6,0.4-2.5
			c0.4-2.1,0.8-4.1,1.2-6.1c0.1-0.5,0-0.5-0.5-0.5C42.6,8.8,40.9,8.7,40.5,8.7z"/>
	</g>
	<g>
		<path class="oc-icon-logo" d="M58.3,8.7c-1.7,0.3-3,1.2-3.4,3c-0.1,0.2-0.1,0.5-0.2,0.7c-0.3,1.5,0.2,2.4,1.5,3.1c0.4,0.2,0.9,0.4,1.4,0.6
			c0.8,0.3,1.6,0.7,2.4,1c0.3,0.1,0.6,0.3,0.6,0.7c0.1,0.9-0.3,1.6-1.2,1.7c-0.7,0.1-1.5,0.2-2.2,0.2c-1.1,0-2.1-0.2-3.1-0.3
			c-0.4,0-0.6,0-0.7,0.5c-0.1,0.5-0.2,1-0.3,1.6c-0.1,0.3,0.1,0.6,0.4,0.7c0.1,0,0.2,0.1,0.3,0.1c1.5,0.3,3.1,0.3,4.6,0.2
			c1.1-0.1,2.2-0.2,3.3-0.7c1.8-0.8,3.1-3.1,2.7-5.1c-0.1-0.7-0.6-1.3-1.2-1.6c-1-0.5-2-0.9-3.1-1.3c-0.4-0.2-0.8-0.3-1.2-0.5
			c-0.5-0.3-0.6-0.6-0.5-1.1c0.2-0.6,0.5-1,1.2-1c1-0.1,2-0.1,3,0c0.6,0,1.2,0.1,1.8,0.2c0.3,0,0.6-0.1,0.6-0.5
			c0.1-0.4,0.2-0.8,0.2-1.2c0.1-0.3-0.1-0.6-0.4-0.7c-0.2-0.1-0.4-0.1-0.6-0.1C63.6,8.5,59.4,8.5,58.3,8.7z"/>
	</g>
	<g>
		<path class="oc-icon-logo" d="M128.2,11.5c0.6,0,1.2,0,1.8,0c0.3,0,0.4-0.1,0.5-0.4c0.1-0.6,0.2-1.2,0.3-1.7c0.1-0.4,0-0.5-0.4-0.5
			c-1.1,0-2.3,0-3.4,0c-0.5,0-0.6-0.1-0.6-0.6c0-0.7,0.1-1.3,0.1-2c0-0.4-0.1-0.5-0.5-0.5c-0.7,0-1.5,0-2.2,0
			c-0.4,0-0.5,0.2-0.6,0.5c-0.8,4-1.5,8-2.3,12c-0.1,0.7-0.3,1.4-0.1,2.1c0.2,1,1,1.5,1.9,1.7c1.4,0.4,2.9,0.3,4.3,0.3
			c0.4,0,0.8-0.1,1.2-0.2c0.3-0.1,0.6-0.3,0.6-0.5c0.2-0.6,0.3-1.2,0.3-1.8c0-0.1-0.2-0.3-0.3-0.3c-0.1-0.1-0.3,0-0.4,0
			c-0.9,0-1.9,0.1-2.8,0c-0.8-0.1-1.2-0.6-1-1.4c0.4-2.1,0.8-4.2,1.2-6.2c0.1-0.4,0.2-0.5,0.6-0.5C127.1,11.5,127.6,11.5,128.2,11.5
			z"/>
	</g>
	<g>
		<path class="oc-icon-logo" d="M115.1,22.3c0.4,0,0.9,0,1.3,0c0.5,0,0.6-0.1,0.7-0.6c0.3-1.7,0.6-3.4,1-5.1c0.5-2.5,0.9-4.9,1.4-7.4
			c0.1-0.5,0-0.6-0.5-0.6c-0.9,0-1.7,0-2.6,0c-0.5,0-0.6,0.1-0.7,0.6c-0.5,2.6-1,5.2-1.5,7.8c-0.3,1.6-0.6,3.1-0.9,4.7
			c-0.1,0.4,0,0.6,0.5,0.6C114.2,22.3,114.7,22.3,115.1,22.3z"/>
	</g>
	<g>
		<path class="oc-icon-logo" d="M118.1,6.5c0.5,0,0.9,0,1.4,0c0.3,0,0.5-0.1,0.6-0.5c0.1-0.7,0.3-1.5,0.4-2.2c0.1-0.5,0-0.6-0.5-0.6
			c-0.8,0-1.7,0-2.5,0c-0.5,0-0.6,0.1-0.7,0.6c-0.1,0.7-0.3,1.5-0.4,2.2c-0.1,0.4,0,0.5,0.4,0.5C117.1,6.5,117.6,6.5,118.1,6.5z"/>
	</g>
	<g>
		<path class="oc-icon-logo" d="M18.4,3.8c-0.4-0.2-0.9-0.3-1.3-0.4c-1.9-0.4-3.8-0.3-5.7-0.1c-2.8,0.4-4.9,1.8-6,4.5c-0.6,1.5-1,3.1-1.3,4.7
			c-0.4,1.9-0.7,3.9-0.5,5.8c0.2,1.8,1,3.1,2.8,3.7c1.3,0.5,2.7,0.5,4.4,0.6c0.6,0,1.5-0.1,2.4-0.2c2.7-0.4,4.6-1.7,5.8-4.2
			c0.6-1.4,1-3,1.3-4.5c0.4-2,0.8-4,0.7-6.1C20.8,5.9,20.1,4.5,18.4,3.8z M16.6,12.1c-0.2,1.6-0.6,3.3-1.1,4.8
			c-0.1,0.3-0.2,0.6-0.4,0.8c-0.6,1.3-1.7,1.9-3.1,2c-0.9,0-1.9,0-2.8-0.1c-1.1-0.1-1.7-0.8-1.8-1.9c-0.2-1.3,0.1-2.6,0.3-3.9
			c0.3-1.6,0.7-3.1,1.1-4.7c0.1-0.5,0.4-1,0.6-1.4c0.6-1,1.5-1.5,2.6-1.6C12.5,6,13,6,13.5,6c0.5,0,1,0.1,1.4,0.1
			c1.3,0.2,2.1,0.9,2,2.4C16.9,9.7,16.8,10.9,16.6,12.1z"/>
	</g>
	<g>
		<path class="oc-icon-logo" d="M109.2,8.8c2,0.4,2.8,1.4,2.8,3.4c0,2.4-0.4,4.7-1.6,6.9c-1.1,2-2.8,3.1-5.1,3.3c-1.4,0.1-2.8,0.1-4.2-0.3
			c-0.4-0.1-0.5,0-0.6,0.4c-0.3,1.7-0.6,3.7-1,5.4c-0.1,0.6-0.2,1-0.8,1c-0.8,0-1.6,0-2.4,0c-0.5,0-0.6-0.3-0.5-0.9
			c0.9-4.6,1.7-9.2,2.6-13.8c0.2-0.8,0.4-1.7,0.7-2.5c0.6-1.5,1.9-2.4,3.4-2.7C103.7,8.6,108.2,8.5,109.2,8.8z M105.7,11.1
			c-0.4,0-0.8,0.1-1.2,0.1c-1,0.2-1.7,0.6-2,1.7c-0.2,0.6-0.4,1.2-0.5,1.9c-0.2,1.2-0.4,2.4-0.5,3.6c-0.1,0.7,0.3,1,0.9,1.1
			c0.5,0.1,1.1,0.1,1.6,0.2c1.6,0,2.5-0.5,3-2c0.4-1,0.6-2.1,0.8-3.2c0.1-0.6,0.1-1.2,0.1-1.9c0-0.8-0.5-1.3-1.3-1.4
			C106.3,11.2,106,11.2,105.7,11.1z"/>
	</g>
	<g>
		<path class="oc-icon-logo" d="M30.5,8.5c1.1,0,2.3,0,3.4,0.3c1.6,0.5,2.4,1.3,2.5,3c0.1,2.6-0.4,5.2-1.7,7.5c-1.1,1.9-2.8,2.8-4.9,3
			c-1.4,0.1-2.9,0.1-4.3-0.3c-0.3-0.1-0.5,0-0.5,0.4c-0.3,1.8-0.7,3.6-1,5.3c-0.1,0.4-0.2,0.5-0.6,0.5c-0.9,0-1.7,0-2.6,0
			c-0.6,0-0.7-0.1-0.6-0.7c0.4-2.2,0.8-4.3,1.2-6.5c0.4-2.4,0.9-4.7,1.4-7.1c0.1-0.6,0.3-1.2,0.5-1.8c0.6-2,2-3.2,4-3.5
			C28.3,8.6,30.5,8.4,30.5,8.5z M28.2,19.7c1.3,0,2.4-0.3,3-1.6c0.8-1.6,1.1-3.4,1.1-5.2c0-1.1-0.5-1.6-1.5-1.7
			c-0.7-0.1-1.5,0-2.2,0.1c-1,0.1-1.6,0.7-1.8,1.7c-0.2,0.6-0.4,1.3-0.5,1.9c-0.2,1.1-0.4,2.2-0.5,3.3c-0.1,0.8,0.2,1.1,1,1.3
			C27.3,19.7,27.8,19.7,28.2,19.7z"/>
	</g>
	<g>
		<path class="oc-icon-logo" d="M138.4,13.7c0.7,0,1.4,0,2.2,0c0.3,0,0.5-0.1,0.5-0.4c0-0.4,0.1-0.7,0-1.1c-0.1-0.6-0.6-1-1.3-1.1
			c-1.4-0.2-2.8-0.1-4.2,0.1c-0.6,0.1-1.1,0.2-1.7,0.3c-0.4,0-0.5,0-0.4-0.5c0.1-0.4,0.1-0.9,0.2-1.3c0.1-0.4,0.4-0.6,0.7-0.7
			c0.7-0.2,1.4-0.4,2.2-0.4c1.2-0.1,2.4-0.1,3.6-0.1c0.9,0.1,1.9,0.2,2.7,0.5c1.3,0.4,2,1.4,2,2.8c0,1.2-0.2,2.5-0.5,3.7
			c-0.4,2.1-0.8,4.2-1.2,6.3c-0.1,0.4-0.2,0.5-0.6,0.5c-0.3,0-0.5,0-0.8,0c-0.5,0.1-0.9-0.2-1.1-0.6c-0.1-0.2-0.3-0.6-0.5-0.6
			c-0.1-0.1-0.4,0.3-0.6,0.4c-0.9,0.6-1.9,0.9-2.9,1c-1.1,0-2.2,0-3.3-0.1c-1.7-0.3-2.4-1.2-2.3-3c0.1-0.9,0.3-1.7,0.5-2.5
			c0.5-1.7,1.8-2.5,3.5-2.7C136.2,13.8,138.3,13.7,138.4,13.7z M136.4,20c0.4,0,0.7-0.1,1.1-0.1c1.3-0.3,2.4-0.9,2.7-2.3
			c0.1-0.4,0.2-0.8,0.3-1.2c0-0.2,0-0.4-0.3-0.4c-1.2,0-2.4,0-3.6,0.1c-0.6,0-1,0.3-1.3,0.9c-0.3,0.7-0.4,1.4-0.4,2.1
			c0,0.4,0.3,0.7,0.7,0.8C135.9,20,136.2,20,136.4,20z"/>
	</g>
	<g>
		<path class="oc-icon-logo" d="M91.1,20.9c-0.1,0-0.1,0.1-0.2,0.1c-1,0.9-2.3,1.3-3.7,1.4c-1.2,0.1-2.3,0.1-3.5-0.3
			c-1.3-0.4-1.8-1.1-1.9-2.4c0-1.2,0.2-2.4,0.7-3.5c0.6-1.3,1.7-2,3-2.2c1-0.2,2-0.2,3-0.2c0.8,0,1.6,0,2.4,0c0.6,0,0.7-0.1,0.8-0.7
			c0-0.2,0.1-0.4,0.1-0.5c0-0.7-0.3-1.3-1-1.4C90,11.1,89.1,11,88.2,11c-1.1,0.1-2.2,0.3-3.3,0.4c-0.1,0-0.2,0-0.4,0
			c-0.2,0-0.3-0.1-0.3-0.3c0.1-0.5,0.1-1.1,0.3-1.5C84.6,9.3,85,9.1,85.3,9c0.7-0.2,1.5-0.4,2.3-0.4c1.3-0.1,2.7-0.1,4,0
			c0.8,0.1,1.6,0.3,2.4,0.5c1.2,0.4,1.7,1.5,1.7,2.7c0,1.2-0.2,2.4-0.4,3.6c-0.4,2.1-0.8,4.2-1.2,6.3c-0.1,0.3-0.3,0.5-0.6,0.5
			c0,0,0,0-0.1,0c-1.6,0-1.4,0.1-2.1-1.1C91.2,21,91.1,21,91.1,20.9z M87.2,20.1c0.4,0,0.8-0.1,1.2-0.1c1.2-0.2,2.1-0.8,2.6-2.1
			c0.2-0.5,0.2-1,0.3-1.5c0.1-0.3-0.1-0.4-0.3-0.4c-1.1,0-2.1,0-3.2,0c-0.8,0-1.5,0.2-1.8,1.1c-0.2,0.6-0.3,1.1-0.3,1.7
			c-0.1,0.7,0.3,1.1,0.8,1.2C86.7,20,86.9,20,87.2,20.1z"/>
	</g>
	<g>
		<path class="oc-icon-logo" d="M64.5,8.6c0.2,0,0.4,0.1,0.6,0.1c0.3,0.1,0.4,0.4,0.4,0.7c-0.1,0.4-0.2,0.8-0.2,1.2c-0.1,0.4-0.3,0.5-0.6,0.5
			c-0.6,0-1.2-0.1-1.8-0.2c-1,0-2,0-3,0c-0.7,0-1.1,0.4-1.2,1c-0.1,0.5,0,0.9,0.5,1.1c0.4,0.2,0.8,0.4,1.2,0.5
			c1,0.4,2.1,0.9,3.1,1.3c0.7,0.3,1.1,0.8,1.2,1.6c0.3,2-0.9,4.3-2.7,5.1c-1,0.5-2.2,0.6-3.3,0.7c-1.5,0.1-3.1,0.1-4.6-0.2
			c-0.1,0-0.2-0.1-0.3-0.1c-0.3-0.1-0.5-0.3-0.4-0.7c0.1-0.5,0.2-1,0.3-1.6c0.1-0.4,0.2-0.5,0.7-0.5c1,0.1,2.1,0.2,3.1,0.3
			c0.7,0,1.5,0,2.2-0.2c0.8-0.2,1.3-0.9,1.2-1.7c-0.1-0.4-0.3-0.6-0.6-0.7c-0.8-0.3-1.6-0.7-2.4-1c-0.5-0.2-0.9-0.4-1.4-0.6
			c-1.3-0.7-1.8-1.6-1.5-3.1c0-0.2,0.1-0.5,0.2-0.7c0.4-1.8,1.7-2.7,3.4-3C59.4,8.5,63.6,8.5,64.5,8.6z"/>
	</g>
</g>
</svg>
