<svg viewBox="0 0 50 30" style="enable-background:new 0 0 50 30;">
<g>
	<path class="oc-icon-logo" d="M35.5,24.7c0.7,0,1.4,0,2.1,0c0.6,0,1.3-0.2,1.9-0.3c0.4-0.1,0.7-0.4,0.8-0.8c0.1-0.5,0.2-1,0.3-1.5
		c0.1-0.3-0.1-0.4-0.3-0.4c-0.4,0-0.8,0.1-1.3,0.1c-1.7,0.2-3.3,0.3-5,0c-1.2-0.2-2.1-0.7-2.5-2c-0.1-0.4-0.2-0.8-0.2-1.2
		c-0.1-1.9,0.3-3.7,0.7-5.6c0.3-1.3,0.7-2.5,1.3-3.7c0.6-1.1,1.6-1.8,2.8-2c1.5-0.3,2.9-0.3,4.4-0.2c0.8,0,1.5,0.1,2.3,0.2
		c0.3,0,0.5-0.1,0.6-0.4c0.1-0.5,0.2-1,0.3-1.5c0.1-0.7,0-0.8-0.7-0.9c-2.6-0.4-5.2-0.4-7.8,0c-2.8,0.4-5,1.9-6.1,4.6
		c-1.4,3.5-2.1,7.1-2,10.8c0.1,2.2,1.3,3.7,3.4,4.3C32.2,24.7,33.9,24.7,35.5,24.7z"/>
	<path class="oc-icon-logo" d="M22,4.8c-0.4-0.2-0.9-0.3-1.4-0.4c-2-0.4-4-0.3-6.1-0.1c-3,0.4-5.2,1.9-6.4,4.7c-0.7,1.6-1.1,3.3-1.4,5
		c-0.4,2-0.8,4.1-0.6,6.2c0.2,1.9,1.1,3.2,2.9,3.9c1.4,0.5,2.9,0.5,4.7,0.6c0.6-0.1,1.6-0.1,2.5-0.2c2.8-0.4,4.9-1.8,6.1-4.4
		c0.7-1.5,1.1-3.1,1.4-4.8c0.4-2.1,0.8-4.3,0.7-6.5C24.6,7,23.8,5.6,22,4.8z M20.1,13.6c-0.3,1.7-0.6,3.4-1.2,5.1
		c-0.1,0.3-0.2,0.6-0.4,0.9c-0.7,1.4-1.8,2.1-3.3,2.1c-1,0-2,0-3-0.1c-1.2-0.1-1.8-0.9-1.9-2c-0.2-1.4,0.1-2.8,0.3-4.2
		c0.3-1.7,0.7-3.3,1.1-5c0.1-0.5,0.4-1,0.7-1.5c0.6-1.1,1.5-1.6,2.7-1.7c0.5-0.1,1-0.1,1.6-0.1c0.5,0,1,0.1,1.5,0.1
		c1.4,0.2,2.2,1,2.1,2.5C20.4,11,20.3,12.3,20.1,13.6z"/>
</g>
</svg>
