<svg viewBox="0 0 40 40">
<g>
	<g>
		<path class="oc-icon-product" d="M27.1,9.6v21.3h7V9.6H27.1z M30.6,27.8c-0.8,0-1.5-0.7-1.5-1.5c0-0.8,0.7-1.5,1.5-1.5c0.8,0,1.5,0.7,1.5,1.5
			C32.1,27.1,31.4,27.8,30.6,27.8z"/>
		<path class="oc-icon-product" d="M17.6,9.6v21.3h7V9.6H17.6z M21.1,27.8c-0.8,0-1.5-0.7-1.5-1.5c0-0.8,0.7-1.5,1.5-1.5c0.8,0,1.5,0.7,1.5,1.5
			C22.6,27.1,21.9,27.8,21.1,27.8z"/>
		<path class="oc-icon-product" d="M11.4,9L5.2,29.5l6.7,2l6.2-20.4L11.4,9z M9.4,27.4c-0.8-0.2-1.3-1.1-1-1.9c0.2-0.8,1.1-1.3,1.9-1
			c0.8,0.2,1.3,1.1,1,1.9C11.1,27.2,10.2,27.7,9.4,27.4z"/>
	</g>
</g>
</svg>
