<svg viewBox="0 0 40 40">
<g>
	<path class="oc-icon-product" d="M34.5,23.4c0-2-0.4-4.4-1.1-6.2c-0.8-1.8-1.8-3.7-3-5S27.5,9.7,25.7,9c-1.8-0.8-3.6-1.2-5.5-1.2
		s-3.8,0.4-5.5,1.2c-1.8,0.8-3.3,1.8-4.5,3.1s-2.3,2.9-3,4.7c-0.7,1.8-1.1,3.7-1.1,5.7c0,2.9,0.8,5.5,2.3,7.9
		c0.2,0.3,0.5,0.5,0.9,0.5l22.2-0.1c0.4,0,0.6,0.1,0.8-0.2C33.7,28.1,34.5,26.4,34.5,23.4L34.5,23.4z M20.1,27.7
		c-1.2,0-2.1-0.8-2.1-1.7c0-0.9,1.7-11.4,2.2-11.4c0.5,0,2,10.5,2,11.4C22.2,27,21.2,27.7,20.1,27.7z M31.5,23.4
		C31.5,23.4,31.5,23.4,31.5,23.4c-0.6,0-1-0.7-1-1.3c0-1.4-0.3-2.9-0.8-4.1c-0.6-1.3-1.3-2.5-2.2-3.4c-0.9-0.9-2-1.7-3.3-2.2
		c-1.3-0.5-2.6-0.8-4-0.8c-1.4,0-2.7,0.3-4,0.8C15,13,13.9,13.7,13,14.6c-0.9,0.9-1.6,2-2.2,3.3c-0.5,1.3-0.8,2.8-0.8,4.2
		c0,0.6-0.4,1.3-1,1.3c0,0,0,0,0,0c-0.5,0-1-0.7-1-1.2c0-1.7,0.3-3.4,1-4.9c0.6-1.5,1.5-2.9,2.6-4c1.1-1.1,2.4-2,3.9-2.7
		c1.5-0.7,3.1-1,4.7-1c1.7,0,3.3,0.3,4.8,0.9c1.5,0.6,2.8,1.5,3.9,2.6c1.1,1.1,2,2.4,2.6,3.9c0.7,1.5,1,3.4,1,5
		C32.5,22.7,32.1,23.4,31.5,23.4z"/>
</g>
</svg>
