<svg
  viewBox="0 0 40.53 40.53">
  <g>
    <g>
      <path class="oc-icon-product" d="M37.1,20.36H33.78a.71.71,0,0,0-.47.12,6.55,6.55,0,0,0-4.26-1.66A6.23,6.23,0,0,0,24.2,21a5.68,5.68,0,0,0-3.79-1.3A5,5,0,0,0,16.75,21a6.07,6.07,0,0,0-4.73-2A6.49,6.49,0,0,0,7.64,20.6a.71.71,0,0,0-.47-.12H3.86a1.19,1.19,0,0,0-1.18,1.18,1.12,1.12,0,0,0,1.18,1.18H6.22A3,3,0,0,0,6,24c0,2.84,2.72,5.2,5.91,5.2s5.91-2.37,5.91-5.2a2.31,2.31,0,0,0-.12-.95A2.86,2.86,0,0,1,20.3,22a4.14,4.14,0,0,1,2.84.95A3.27,3.27,0,0,0,23,24c0,2.84,2.72,5.2,5.91,5.2s5.91-2.37,5.91-5.2a4.25,4.25,0,0,0-.24-1.3H37a1.19,1.19,0,0,0,1.18-1.18A1.09,1.09,0,0,0,37.1,20.36ZM12,26.87c-2,0-3.67-1.3-3.67-2.84S10,21.19,12,21.19s3.67,1.3,3.67,2.84S14,26.87,12,26.87Zm17,0c-2,0-3.67-1.3-3.67-2.84s1.66-2.84,3.67-2.84,3.67,1.3,3.67,2.84S31.06,26.87,29.05,26.87Z"/>
    </g>
  </g>
</svg>
