<svg viewBox="0 0 40 40">
<g>
	<g>
		<g>
			<path class="oc-icon-product" d="M22.9,26.1c-0.3,0-0.5-0.1-0.7-0.3l-4.1-4.1l-4,4c-0.4,0.4-1,0.4-1.4,0s-0.4-1,0-1.4l4.7-4.7
				c0.2-0.2,0.4-0.3,0.7-0.3l0,0c0.3,0,0.5,0.1,0.7,0.3l4.1,4.1l4.4-4.4c0.4-0.4,1-0.4,1.4,0s0.4,1,0,1.4l-5.1,5.1
				C23.4,26,23.2,26.1,22.9,26.1z"/>
		</g>
		<g>
			<circle class="oc-icon-product" cx="28" cy="20.1" r="2"/>
		</g>
		<g>
			<circle class="oc-icon-product" cx="18.1" cy="20.4" r="2"/>
		</g>
		<g>
			<circle class="oc-icon-product" cx="22.9" cy="25.1" r="2"/>
		</g>
		<g>
			<g>
				<path class="oc-icon-product" d="M29.7,33.7H9.2c-0.8,0-1.5-0.7-1.5-1.5V10.2c0-0.8,0.7-1.5,1.5-1.5s1.5,0.7,1.5,1.5v20.6h19
					c0.8,0,1.5,0.7,1.5,1.5C31.2,33,30.5,33.7,29.7,33.7z"/>
			</g>
		</g>
	</g>
</g>
</svg>
