<svg viewBox="0 0 40 40">
<g>
	<g>
		<g>
			<g>
				<ellipse transform="matrix(0.967 -0.2548 0.2548 0.967 -2.9937 4.5889)" class="oc-icon-product" cx="16.2" cy="13.9" rx="5.3" ry="5.3"/>
			</g>
			<g>
				<ellipse transform="matrix(0.967 -0.2548 0.2548 0.967 -5.5548 8.4579)" class="oc-icon-product" cx="29.9" cy="25.7" rx="3.7" ry="3.7"/>
			</g>
			<g>
				<ellipse transform="matrix(0.967 -0.2548 0.2548 0.967 -7.5597 3.5307)" class="oc-icon-product" cx="9.8" cy="30.9" rx="3" ry="3"/>
			</g>
			<g>
				<path class="oc-icon-product" d="M13.9,32.6c-2.2,0-3.5-0.3-3.6-0.3L10,32.2c-1-0.5-1.7-2.6,0.4-9c2.3-7.3,5-9.4,5.1-9.5l0.4-0.3l0.5,0.2
					c0.2,0.1,4.8,1.5,9.3,5.6c4.5,4.1,5.2,6.6,5.3,6.9l0.2,0.6L30.7,27c-0.2,0.1-3.8,3.2-9.7,4.7C18.2,32.4,15.7,32.6,13.9,32.6z
					 M11.1,30.4c1.2,0.2,4.8,0.5,9.3-0.7c4.2-1.1,7.2-3,8.4-3.9c-0.5-0.9-1.6-2.8-4.5-5.3c-3.3-3-6.7-4.5-8-5
					c-0.7,0.8-2.5,3.1-4.1,8.2C10.9,28.2,11,29.9,11.1,30.4z"/>
			</g>
		</g>
	</g>
</g>
</svg>
