<svg viewBox="0 0 40 40">
<g>
	<g>
		<g>
			<g>
				<path class="oc-icon-product" d="M20.3,7.4c-7.1,0-12.8,5.7-12.8,12.8c0,0.7,0.1,1.4,0.2,2c2.9,0,5.1,1.5,5.1,3.4v0.9
					c0.1,0.1,0.3,0.2,0.4,0.3c0.1,0.1,0.1,0.1,0.1,0.2c0.9-0.8,2.4-1.2,4-1.2c1.8,0,3.4,0.6,4.3,1.5c0,0,0,0,0,0
					c0-0.3,0.3-0.6,0.3-0.9c0-0.3-0.1-1.1-0.2-1.4c-0.1-0.2-0.2-0.2-0.4-0.4c-0.2-0.3-0.2-0.4-0.2-0.8c-0.1-0.7,0.1-0.9-0.6-0.8
					c-0.2,0-0.3,0.1-0.5,0c-0.2-0.2,0-0.3-0.3-0.4c-0.3-0.1-1.2,0.5-1.6,0.6c-0.4,0-0.5-0.2-0.9-0.4c-0.9-0.7-1.5-1.5-1.4-2.6
					c0-0.6,0.1-1.1,0.5-1.5c0.3-0.3,0.8-0.4,1-0.8c0.2-0.3,0.3-0.8,0.7-1c0.3-0.2,0.8-0.1,1.2-0.2c0.4-0.2,0.7-0.3,1.1-0.2
					c0.4,0,0.7-0.1,0.9,0.2c0.3,0.4,0,0.7,0.5,1c0.4,0.2,1.2,0.2,1.6-0.1c0,0,0,0,0,0c0.1-0.1,1.4,0.4,1.5,0.4
					c0.7,0.3,1.1,0.8,1.4,1.5c0.3,0.7,0.5,1.3,1,2c0.1,0.2,0.5,0.8,0.6,0.9c0.1,0.1,0.6-0.1,0.8-0.1c-0.2,1.2-1.7,1.8-1.9,3
					c-0.1,0.4,0.2,0.8,0.1,1.2c-0.1,0.4-0.5,0.6-0.7,0.9c-0.2,0.2-0.5,0.5-0.5,0.8c0,0.2,0.1,0.4,0,0.5c-0.1,0.2-0.5,0.3-0.6,0.5
					c-0.4,0.4-0.7,0.8-1.3,1c-0.4,0.1-0.8,0.2-1.2,0.2c0-0.2,0,1.2,0,1.2c0,0.5-0.2,1-0.4,1.4c6.3-0.8,11.1-6.2,11.1-12.7
					C33.1,13.2,27.4,7.4,20.3,7.4z M11,15.7c-0.2,0.2-1.3,0.7-1.2,1.1c0,0,0.4-0.2,0.4-0.1c0,0.3-0.5,0.8-0.7,1.1
					C9.4,18,9.2,18.3,9,18.6c-0.3,0.7-0.1,1.5-0.4,2.1c0-1.2,0.3-2.5,0.7-3.7c0.3-0.8,0.9-2.6,1.6-2.9c0,0.1-0.1,0.2-0.1,0.3
					c0,0.2,0.2,0.4,0.2,0.6C11.1,15.3,11.1,15.5,11,15.7z M14.9,11.1c-0.3,0.3-0.5,0.6-0.7,0.9c-0.2,0.3-0.7,0.8-1.1,0.8
					c-0.3,0-0.8-0.1-0.7-0.3c0.8-0.7,0.4-0.4,0.2-0.1c1-0.9,2.2-1.7,3.5-2.2C15.8,10.6,15.3,10.7,14.9,11.1z M27.8,28
					c-0.4,0.5-0.9,0.6-0.7-0.2c0.1-0.4,0.3-0.8,0.6-1.1c0.3-0.3,0.4-0.4,0.6-0.8c0,0.1,0,0.2,0,0.3C28.4,26.8,28.2,27.6,27.8,28z
					 M17.6,13c0.1-0.2,0.2-0.1,0.5,0c0-0.3-0.1-1.1,0.4-1c0.2,0,0.7,0.9,0.8,1c-0.4,0.3-0.8,0.3-1.3,0.4c0-0.2,0-0.3,0-0.5
					c-0.1,0.2-0.3,0.3-0.4,0.5C17.5,13.3,17.4,13.1,17.6,13z M30.8,19.8c-0.4-0.4-0.7-0.5-1.3-0.7c-0.4-0.1-0.8-0.6-1.2-0.6
					c0.1,0.2,0.2,0.6,0.4,0.8c0.2,0.2,0.5,0,0.7,0.2c0.1,0.1,0.1,0.3,0.2,0.3c0.4,0.5,0,0.6-0.4,0.9c-0.3,0.2-0.5,0.4-0.9,0.6
					c-1,0.4-1-0.5-1.4-1.2c-0.1-0.2-1.4-2.1-1.4-2.1c0.3-0.2,0.2,0.1,0.3-0.2c0.1-0.2-0.1-0.6,0-0.9c-0.6,0.4-0.7,0.4-1.2-0.3
					c-0.3-0.5-0.2-0.8,0.4-1c0.4-0.1,1.1,0.2,1.5,0c0.7-0.3-0.7-0.8-0.7-0.8c0-0.1,0.3-0.3,0.4-0.4c-0.7-0.1-1.3,0.2-1.7,0.8
					c-0.2,0.3,0.2,0.2-0.3,0.5c-0.2,0.1-0.4,0-0.6,0.1c-0.4,0.1-0.5,0.1-0.2,0.5c-0.3-0.3-0.4-0.7-0.6-1c-0.3-0.3-0.9-0.6-1.3-0.8
					c0,0.6,0.5,0.9,0.9,1.3c-0.2,0-0.4,0-0.6,0c0.1-0.3-0.7-0.9-1-0.9c-0.9-0.1-1.3,0.8-1.9,1.3c-0.4,0.3-1.3,0.4-1.5-0.1
					c-0.1-0.2,0-0.5,0-0.7c0-0.5,0-0.4,0.4-0.5c0.5-0.2,0.9-0.1,1.1-0.7c0-0.1-0.2-0.3,0-0.5c0.1-0.2,0.5-0.2,0.7-0.3
					c0.3-0.2,0.5-0.3,0.8-0.6c0.4-0.3,0.5-0.5,0.9-0.3c0.2,0.1,0.4,0.5,0.7,0.5c0.9,0.1,0.7-1,0.4-1.4c-0.1,0.2-0.4,0.7-0.6,0.8
					c-0.6,0.2-0.5-0.5-0.8-0.7c-0.4-0.3-0.8,0.3-0.6-0.3c0.1-0.3,0.4-0.4,0.7-0.5c0.4-0.2,0.9-0.4,1.3-0.5c0.4-0.1,0.8,0.1,1.2,0.1
					c0.5,0,1.1-0.2,1.5,0.1c0.3,0.2,0.1,0.3,0.5,0.5c0.3,0.2,0.2,0,0.5,0c0.1,0,0.2-0.1,0.2-0.1c0.1,0.1,0.3,0.2,0.4,0.3
					c1,0.7,1.9,1.5,2.6,2.5c1.6,2,2.4,4.5,2.4,7.1c0,0.2,0,0.4,0,0.7C31.6,20.9,31.4,20.3,30.8,19.8z"/>
			</g>
		</g>
		<g>
			<path class="oc-icon-product" d="M16.8,27.7c2,0,3.7,0.6,3.7,1.4c0,0.8-1.7,1.4-3.7,1.4c-2,0-3.7-0.6-3.7-1.4C13.1,28.3,14.8,27.7,16.8,27.7z
				"/>
		</g>
		<g>
			<g>
				<path class="oc-icon-product" d="M6.9,23.9c2,0,3.7,0.6,3.7,1.4c0,0.8-1.7,1.4-3.7,1.4c-2,0-3.7-0.6-3.7-1.4C3.3,24.5,4.9,23.9,6.9,23.9z"/>
			</g>
			<path class="oc-icon-product" d="M10.6,28c0,0-0.6,1.2-3.7,1.2S3.3,28,3.3,28v-1.3c0,0,1.1,1.2,3.7,1.2s3.7-1.2,3.7-1.2V28z"/>
			<path class="oc-icon-product" d="M10.6,30.5c0,0-0.6,1.2-3.7,1.2s-3.7-1.2-3.7-1.2v-1.3c0,0,1.1,1.2,3.7,1.2s3.7-1.2,3.7-1.2V30.5z"/>
			<path class="oc-icon-product" d="M10.6,33c0,0-0.6,1.2-3.7,1.2S3.3,33,3.3,33v-1.3c0,0,1.1,1.2,3.7,1.2s3.7-1.2,3.7-1.2V33z"/>
		</g>
		<path class="oc-icon-product" d="M20.5,32c0,0-0.6,1.2-3.7,1.2S13.1,32,13.1,32v-1.3c0,0,1.1,1.2,3.7,1.2s3.7-1.2,3.7-1.2V32z"/>
	</g>
</g>
</svg>
