<svg viewBox="0 0 40 40">
<g>
	<g>
		<path class="oc-icon-product" d="M31,22.7c-1.4-2.4-0.5-5.4,1.8-6.8l-2.6-4.4c-0.7,0.4-1.6,0.7-2.5,0.7c-2.7,0-5-0.9-5-4.9h-5.1
			c0,1-0.2,1.6-0.7,2.4c-1.4,2.4-4.4,3.1-6.8,1.8l-2.6,4.4c0.7,0.4,1.4,1,1.8,1.8c1.4,2.4,0.5,5.4-1.8,6.8l2.6,4.4
			c0.7-0.4,1.6-0.6,2.5-0.6c2.7,0,4.9,3,5,5h5.1c0-1,0.2-1.7,0.7-2.5c1.4-2.4,4.4-3.2,6.8-1.8l2.6-4.4C32.1,24.1,31.5,23.5,31,22.7z
			 M20.3,25.4c-2.9,0-5.3-2.4-5.3-5.3s2.4-5.3,5.3-5.3c2.9,0,5.3,2.4,5.3,5.3S23.2,25.4,20.3,25.4z"/>
	</g>
</g>
</svg>
