<svg viewBox="0 0 40 40">
<g>
	<path class="oc-icon-product" d="M20.3,6.3c-7.7,0-14,6.3-14,14c0,7.7,6.3,14,14,14s14-6.3,14-14C34.3,12.5,28,6.3,20.3,6.3z M22.3,16.6
		c1.9,0,3.5,1.2,3.5,3.6c0,2.4-2,5-3.5,5c-1.5,0-3.5-2.7-3.5-5C18.8,17.7,20.3,16.6,22.3,16.6z M14.2,14.9c1.2,0,2.2,0.8,2.2,2.2
		c0,1.5-1.2,3.2-2.2,3.2c-0.9,0-2.2-1.7-2.2-3.2C12,15.6,13,14.9,14.2,14.9z M10.9,22c0-0.9,0.8-1.6,2-1.8c0.4,0.4,0.9,0.8,1.3,0.8
		c0.4,0,0.9-0.3,1.3-0.8c1.2,0.2,2,0.9,2,1.8C17.5,23.3,10.9,23.3,10.9,22z M17,27.8c0-2,1.3-2.4,3.2-2.8c0.6,0.7,1.4,1.2,2.1,1.2
		c0.7,0,1.4-0.6,2.1-1.3c1.9,0.4,3.2,0.9,3.2,2.9S17,29.8,17,27.8z"/>
</g>
</svg>
